<svg width="18" height="17" viewBox="0 0 18 17" fill="none" xmlns="http://www.w3.org/2000/svg">
<path fill-rule="evenodd" clip-rule="evenodd" d="M5.17744 0.051C6.08385 0.00927271 6.37285 0 8.68176 0C10.9907 0 11.2797 0.0100454 12.1853 0.051C13.0909 0.0919545 13.7091 0.236455 14.25 0.445864C14.8164 0.659909 15.3303 0.9945 15.7553 1.42723C16.188 1.85145 16.5219 2.36455 16.7351 2.93173C16.9453 3.47264 17.089 4.09082 17.1308 4.99491C17.1725 5.90286 17.1818 6.19186 17.1818 8.5C17.1818 10.8089 17.1717 11.0979 17.1308 12.0043C17.0898 12.9084 16.9453 13.5266 16.7351 14.0675C16.5218 14.6348 16.1875 15.1487 15.7553 15.5735C15.3303 16.0063 14.8164 16.3401 14.25 16.5534C13.7091 16.7635 13.0909 16.9073 12.1869 16.949C11.2797 16.9907 10.9907 17 8.68176 17C6.37285 17 6.08385 16.99 5.17744 16.949C4.27335 16.908 3.65517 16.7635 3.11426 16.5534C2.54702 16.3401 2.03308 16.0057 1.60822 15.5735C1.17578 15.1491 0.841142 14.6354 0.627626 14.0683C0.418217 13.5274 0.27449 12.9092 0.232763 12.0051C0.191035 11.0971 0.181763 10.8081 0.181763 8.5C0.181763 6.19109 0.191808 5.90209 0.232763 4.99645C0.273717 4.09082 0.418217 3.47264 0.627626 2.93173C0.841458 2.36461 1.17635 1.85092 1.60899 1.42645C2.03325 0.994115 2.54667 0.659479 3.11349 0.445864C3.6544 0.236455 4.27258 0.0927273 5.17667 0.051H5.17744ZM12.1165 1.581C11.2202 1.54005 10.9513 1.53155 8.68176 1.53155C6.41226 1.53155 6.14335 1.54005 5.24699 1.581C4.41785 1.61886 3.96813 1.75718 3.66831 1.87386C3.2719 2.02841 2.98831 2.21155 2.69081 2.50905C2.4088 2.7834 2.19177 3.1174 2.05563 3.48655C1.93894 3.78636 1.80063 4.23609 1.76276 5.06523C1.72181 5.96159 1.71331 6.2305 1.71331 8.5C1.71331 10.7695 1.72181 11.0384 1.76276 11.9348C1.80063 12.7639 1.93894 13.2136 2.05563 13.5135C2.19163 13.882 2.40876 14.2166 2.69081 14.491C2.96513 14.773 3.29972 14.9901 3.66831 15.1261C3.96813 15.2428 4.41785 15.3811 5.24699 15.419C6.14335 15.46 6.41149 15.4685 8.68176 15.4685C10.952 15.4685 11.2202 15.46 12.1165 15.419C12.9457 15.3811 13.3954 15.2428 13.6952 15.1261C14.0916 14.9716 14.3752 14.7885 14.6727 14.491C14.9548 14.2166 15.1719 13.882 15.3079 13.5135C15.4246 13.2136 15.5629 12.7639 15.6008 11.9348C15.6417 11.0384 15.6502 10.7695 15.6502 8.5C15.6502 6.2305 15.6417 5.96159 15.6008 5.06523C15.5629 4.23609 15.4246 3.78636 15.3079 3.48655C15.1534 3.09014 14.9702 2.80655 14.6727 2.50905C14.3983 2.22706 14.0644 2.01003 13.6952 1.87386C13.3954 1.75718 12.9457 1.61886 12.1165 1.581ZM7.59608 11.1203C8.20241 11.3727 8.87755 11.4068 9.50621 11.2167C10.1349 11.0266 10.678 10.6242 11.0429 10.0781C11.4078 9.53203 11.5718 8.87622 11.5069 8.22267C11.442 7.56913 11.1522 6.95839 10.687 6.49477C10.3904 6.19841 10.0319 5.97149 9.63711 5.83034C9.24234 5.68919 8.82119 5.63732 8.40396 5.67848C7.98674 5.71963 7.58384 5.85277 7.22425 6.06833C6.86466 6.28388 6.55734 6.57648 6.32441 6.92507C6.09147 7.27365 5.93873 7.66954 5.87716 8.08424C5.8156 8.49894 5.84674 8.92214 5.96836 9.32335C6.08998 9.72457 6.29904 10.0938 6.5805 10.4046C6.86196 10.7153 7.20881 10.9597 7.59608 11.1203ZM5.5924 5.41064C5.9981 5.00494 6.47974 4.68312 7.00981 4.46355C7.53989 4.24399 8.10801 4.13098 8.68176 4.13098C9.25551 4.13098 9.82364 4.24399 10.3537 4.46355C10.8838 4.68312 11.3654 5.00494 11.7711 5.41064C12.1768 5.81634 12.4986 6.29797 12.7182 6.82805C12.9378 7.35812 13.0508 7.92625 13.0508 8.5C13.0508 9.07375 12.9378 9.64188 12.7182 10.172C12.4986 10.702 12.1768 11.1837 11.7711 11.5894C10.9518 12.4087 9.8405 12.869 8.68176 12.869C7.52303 12.869 6.41175 12.4087 5.5924 11.5894C4.77305 10.77 4.31274 9.65874 4.31274 8.5C4.31274 7.34126 4.77305 6.22999 5.5924 5.41064ZM14.0198 4.78164C14.1203 4.6868 14.2008 4.57275 14.2565 4.44625C14.3121 4.31975 14.3418 4.18337 14.3439 4.04517C14.3459 3.90698 14.3201 3.76979 14.2682 3.64172C14.2162 3.51365 14.1391 3.3973 14.0414 3.29958C13.9436 3.20185 13.8273 3.12472 13.6992 3.07276C13.5712 3.02081 13.434 2.99507 13.2958 2.99709C13.1576 2.9991 13.0212 3.02882 12.8947 3.08449C12.7682 3.14016 12.6541 3.22065 12.5593 3.32118C12.3749 3.5167 12.2739 3.77641 12.2778 4.04517C12.2817 4.31393 12.3902 4.57059 12.5803 4.76065C12.7704 4.95071 13.027 5.05922 13.2958 5.06314C13.5645 5.06706 13.8242 4.96608 14.0198 4.78164Z" fill="#D50000"/>
</svg>
