<svg width="18" height="17" viewBox="0 0 18 17" fill="none" xmlns="http://www.w3.org/2000/svg">
<path fill-rule="evenodd" clip-rule="evenodd" d="M2.28886 2.19792C2.60767 1.87911 3.04007 1.7 3.49094 1.7H13.6909C14.1418 1.7 14.5742 1.87911 14.893 2.19792C15.2118 2.51673 15.3909 2.94913 15.3909 3.4V13.6C15.3909 14.0509 15.2118 14.4833 14.893 14.8021C14.5742 15.1209 14.1418 15.3 13.6909 15.3H3.49094C3.04007 15.3 2.60767 15.1209 2.28886 14.8021C1.97005 14.4833 1.79094 14.0509 1.79094 13.6V3.4C1.79094 2.94913 1.97005 2.51673 2.28886 2.19792ZM13.6909 0H3.49094C2.58921 0 1.7244 0.358213 1.08678 0.995837C0.449156 1.63346 0.0909424 2.49826 0.0909424 3.4V13.6C0.0909424 14.5017 0.449156 15.3665 1.08678 16.0042C1.7244 16.6418 2.58921 17 3.49094 17H13.6909C14.5927 17 15.4575 16.6418 16.0951 16.0042C16.7327 15.3665 17.0909 14.5017 17.0909 13.6V3.4C17.0909 2.49826 16.7327 1.63346 16.0951 0.995837C15.4575 0.358213 14.5927 0 13.6909 0ZM12.8408 12.6028V9.46031C12.8408 7.77731 11.9415 6.99361 10.743 6.99361C9.77487 6.99361 9.34307 7.52571 9.10082 7.89971V7.91671H9.08892L9.10082 7.89886V7.12281H7.27842C7.30307 7.63706 7.27842 12.6028 7.27842 12.6028H9.10082V9.54191C9.10082 9.37871 9.11357 9.21551 9.16117 9.09821C9.29292 8.77011 9.59297 8.43181 10.0962 8.43181C10.7558 8.43181 11.0193 8.93416 11.0193 9.67026V12.6028H12.8408ZM4.34082 5.42706C4.34082 4.88986 4.74882 4.48016 5.37187 4.48016C5.99577 4.48016 6.37912 4.88986 6.39102 5.42706C6.39102 5.95321 5.99577 6.37481 5.35997 6.37481H5.34807C4.73692 6.37481 4.34082 5.95406 4.34082 5.42706ZM6.27117 12.6028H4.44877V7.12281H6.27117V12.6028Z" fill="#D50000"/>
</svg>
