<svg width="10" height="10" viewBox="0 0 10 10" fill="none" xmlns="http://www.w3.org/2000/svg">
<path d="M4.19369 0.677479C4.3978 0.0493129 5.28648 0.0493133 5.49059 0.67748L6.1433 2.68632C6.23458 2.96725 6.49637 3.15745 6.79175 3.15745H8.90397C9.56447 3.15745 9.83908 4.00264 9.30473 4.39087L7.59591 5.6324C7.35694 5.80602 7.25695 6.11377 7.34823 6.3947L8.00094 8.40354C8.20504 9.03171 7.48608 9.55407 6.95173 9.16584L5.2429 7.9243C5.00394 7.75068 4.68035 7.75068 4.44138 7.9243L2.73255 9.16584C2.1982 9.55407 1.47924 9.03171 1.68334 8.40354L2.33606 6.3947C2.42733 6.11377 2.32734 5.80602 2.08837 5.6324L0.379547 4.39087C-0.154804 4.00264 0.119816 3.15745 0.78031 3.15745H2.89253C3.18791 3.15745 3.4497 2.96725 3.54098 2.68632L4.19369 0.677479Z" fill="#ED8A19"/>
</svg>
